<svg aria-hidden="true" style="position: absolute; width: 0; height: 0; overflow: hidden;" version="1.1" xmlns="http://www.w3.org/2000/svg" xmlns:xlink="http://www.w3.org/1999/xlink">
<defs>
<symbol id="icon-degreevideos" viewBox="0 0 50 32">
<title>degreevideos</title>
<path fill="#42a5f6" style="fill: var(--color1, #42a5f6)" d="M49.883 16.811c-1.247 5.163-5.288 7.482-9.727 9.278-3.317 1.365-7.159 2.26-11.179 2.49l-0.095 0.004c-0.577 0.065-1.101 0.242-1.566 0.509l0.020-0.010c-1.497 0.823-2.943 1.696-4.415 2.494s-1.871 0.424-1.871-1.048v-1.771c-2.719-0.549-5.387-0.948-7.981-1.596-3.862-0.861-7.229-2.605-10.005-5.012l0.028 0.024c-1.866-1.451-3.056-3.696-3.056-6.219 0-0.871 0.142-1.708 0.403-2.491l-0.016 0.055c0.922-2.404 2.621-4.337 4.784-5.534l0.054-0.028c0.274-0.175 0.823 0 1.247 0.125 0 0.449 0 1.023-0.349 1.322-0.848 0.873-1.896 1.571-2.669 2.494-1.037 1.034-1.679 2.464-1.679 4.044 0 1.665 0.712 3.164 1.849 4.207l0.004 0.004c2.28 2.323 5.152 4.056 8.372 4.957l0.133 0.032c2.616 0.898 5.644 1.505 8.784 1.692l0.095 0.005v-2.195c0-1.247 0.599-1.596 1.671-0.998 1.621 0.898 3.193 1.871 4.814 2.744 0.406 0.237 0.894 0.377 1.415 0.377 0.046 0 0.092-0.001 0.138-0.003l-0.006 0c5.722-0.307 10.964-2.126 15.405-5.060l-0.115 0.072c1.577-1.027 2.784-2.507 3.447-4.255l0.020-0.060c0.175-0.498 0.276-1.073 0.276-1.671 0-1.265-0.453-2.425-1.206-3.326l0.007 0.008c-0.929-1.051-1.907-2.006-2.951-2.884l-0.042-0.034c-0.499-0.424-0.998-0.798-0.574-1.447s1.048-0.399 1.621 0c2.461 1.52 4.244 3.938 4.899 6.786l0.014 0.073zM26.189 27.685l-3.292-1.871v3.716z"></path>
<path fill="#42a5f6" style="fill: var(--color1, #42a5f6)" d="M24.942 20.427h-12.97c-2.32 0-3.143-0.823-3.143-3.143v-14.291c0-2.045 0.948-2.993 2.993-2.993h26.363c0.129-0.024 0.278-0.037 0.429-0.037 1.377 0 2.494 1.117 2.494 2.494 0 0.136-0.011 0.27-0.032 0.401l0.002-0.014c0 4.988 0 9.977 0 14.965 0.009 0.079 0.014 0.171 0.014 0.263 0 1.377-1.117 2.494-2.494 2.494-0.093 0-0.184-0.005-0.275-0.015l0.011 0.001zM34.918 18.606v-16.736h-19.953v16.736zM10.7 9.104v2.22h2.32v-2.22zM10.7 15.389h2.32v-2.195h-2.32zM36.864 13.169v2.195h2.494v-2.195zM39.358 5.088h-2.494v2.095h2.494zM10.7 4.988v2.245h2.345v-2.245zM36.889 8.979v2.17h2.494v-2.070zM39.183 3.093c0.299-1.347-0.2-1.646-2.32-1.297v1.297zM13.069 1.896c-2.17-0.274-2.494 0-2.494 1.297h2.494zM36.864 18.532c2.095 0.349 2.494 0.125 2.32-1.222h-2.32zM10.725 17.26c-0.15 1.422 0.524 1.746 2.32 1.222v-1.222z"></path>
<path fill="#42a5f6" style="fill: var(--color1, #42a5f6)" d="M19.080 10.176c0-1.746 0-3.467 0-5.213 0-1.322 0.624-1.671 1.721-1.023l9.129 5.313c1.097 0.648 1.122 1.322 0 1.97l-9.178 5.338c-1.048 0.599-1.646 0.249-1.646-0.948-0.025-1.821-0.025-3.641-0.025-5.437zM20.926 6.061v8.355l7.233-4.165z"></path>
</symbol>
<symbol id="icon-Asset-17" viewBox="0 0 48 32">
<title>Asset-17</title>
<path fill="#fff" style="fill: var(--color2, #fff)" d="M40.689 12.308c-0.625-0.124-1.12-0.578-1.301-1.169l-0.003-0.012c-1.797-5.992-6.998-10.39-13.306-10.974l-0.061-0.005c-0.725-0.121-1.56-0.19-2.412-0.19-5.564 0-10.44 2.944-13.156 7.36l-0.038 0.067c-0.298 0.407-0.71 0.716-1.189 0.881l-0.017 0.005c-4.17 1.049-7.429 4.161-8.666 8.161l-0.023 0.086c-0.222 0.714-0.345 1.428-0.517 2.142v2.462c0.069 0.19 0.137 0.429 0.19 0.674l0.007 0.040c0.492 2.997 2.038 5.567 4.237 7.368l0.021 0.017c4.012 3.495 8.763 2.782 13.465 2.782h12.012c3.003 0 5.957 0 8.911 0 4.801-0.419 8.593-4.227 8.982-8.999l0.002-0.035c0.069-0.429 0.108-0.924 0.108-1.428 0-4.447-3.055-8.181-7.181-9.216l-0.066-0.014zM39.065 27.717c-1.776 0.155-3.842 0.243-5.929 0.243-0.616 0-1.229-0.008-1.841-0.023l0.091 0.002h-19.249c-0.022 0-0.047 0-0.073 0-4.030 0-7.372-2.943-7.994-6.797l-0.006-0.047c-0.059-0.358-0.093-0.771-0.093-1.191 0-3.801 2.752-6.959 6.373-7.59l0.046-0.007c1.377-0.223 2.515-1.085 3.115-2.265l0.011-0.024c2.054-3.64 5.896-6.057 10.303-6.057 0.073 0 0.146 0.001 0.219 0.002l-0.011-0c0.037-0 0.082-0.001 0.126-0.001 5.773 0 10.582 4.132 11.628 9.6l0.012 0.074c0.517 2.191 0.517 2.191 2.782 2.462 2.973 0.32 5.27 2.805 5.292 5.832v0.002c0.005 0.092 0.008 0.199 0.008 0.307 0 2.821-2.072 5.158-4.777 5.572l-0.031 0.004z"></path>
<path fill="#fff" style="fill: var(--color2, #fff)" d="M21.243 17.575h-3.446c-0.008 0-0.016 0-0.025 0-0.639 0-1.157-0.518-1.157-1.157 0-0.271 0.093-0.52 0.249-0.717l-0.002 0.002 6.228-8.32c0.218-0.281 0.556-0.46 0.935-0.46s0.717 0.179 0.933 0.457l0.002 0.003 6.203 8.246c0.139 0.191 0.222 0.431 0.222 0.689 0 0.644-0.515 1.168-1.156 1.181l-0.001 0h-3.397c-0.34 0-0.615 0.276-0.615 0.615v0 6.695c-0.014 0.465-0.394 0.837-0.861 0.837-0 0-0 0-0 0h-2.609c-0.007 0-0.016 0-0.025 0-0.462 0-0.837-0.375-0.837-0.837 0-0 0-0 0-0v0-6.622c0-0 0-0 0-0 0-0.34-0.276-0.615-0.615-0.615-0.009 0-0.017 0-0.026 0.001l0.001-0z"></path>
</symbol>
<symbol id="icon-BasicInformation" viewBox="0 0 32 32">
<title>BasicInformation</title>
<path fill="#42a5f6" style="fill: var(--color1, #42a5f6)" d="M17.242 32.048h-2.436c-0.577-0.096-1.154-0.176-1.731-0.288-7.459-1.468-13.008-7.955-13.008-15.738 0-0.865 0.069-1.713 0.2-2.541l-0.012 0.091c1.131-7.723 7.71-13.585 15.658-13.585 0.603 0 1.199 0.034 1.784 0.1l-0.072-0.007c6.265 0.468 11.447 4.636 13.396 10.308l0.032 0.108c0.39 1.223 0.737 2.71 0.972 4.234l0.022 0.173v2.275c-0.046 0.153-0.085 0.337-0.11 0.526l-0.002 0.019c-0.731 6.429-5.172 11.655-11.103 13.525l-0.113 0.031c-1.154 0.32-2.323 0.481-3.477 0.769zM16.024 29.324c7.363-0.012 13.327-5.984 13.327-13.348 0-7.372-5.976-13.348-13.348-13.348-7.242 0-13.137 5.768-13.342 12.961l-0 0.019c-0.003 0.11-0.005 0.239-0.005 0.369 0 7.372 5.976 13.348 13.348 13.348 0.007 0 0.015 0 0.022-0h-0.001z"></path>
<path fill="#42a5f6" style="fill: var(--color1, #42a5f6)" d="M14.422 24.116v-11.874h3.205v11.874z"></path>
<path fill="#42a5f6" style="fill: var(--color1, #42a5f6)" d="M16.024 7.74c1.154 0 1.763 0.529 1.763 1.602s-0.625 1.602-1.747 1.602-1.811-0.577-1.779-1.602 0.593-1.602 1.763-1.602z"></path>
<path fill="#fafafa" style="fill: var(--color3, #fafafa)" d="M17.242 32.048h-2.436c-0.577-0.096-1.154-0.176-1.731-0.288-7.459-1.468-13.008-7.955-13.008-15.738 0-0.865 0.069-1.713 0.2-2.541l-0.012 0.091c1.131-7.723 7.71-13.585 15.658-13.585 0.603 0 1.199 0.034 1.784 0.1l-0.072-0.007c6.265 0.468 11.447 4.636 13.396 10.308l0.032 0.108c0.39 1.223 0.737 2.71 0.972 4.234l0.022 0.173v2.275c-0.046 0.153-0.085 0.337-0.11 0.526l-0.002 0.019c-0.731 6.429-5.172 11.655-11.103 13.525l-0.113 0.031c-1.154 0.32-2.323 0.481-3.477 0.769zM16.024 29.324c7.363-0.012 13.327-5.984 13.327-13.348 0-7.372-5.976-13.348-13.348-13.348-7.242 0-13.137 5.768-13.342 12.961l-0 0.019c-0.003 0.11-0.005 0.239-0.005 0.369 0 7.372 5.976 13.348 13.348 13.348 0.007 0 0.015 0 0.022-0h-0.001z"></path>
<path fill="#fafafa" style="fill: var(--color3, #fafafa)" d="M14.422 24.116v-11.874h3.205v11.874z"></path>
<path fill="#fafafa" style="fill: var(--color3, #fafafa)" d="M16.024 7.74c1.154 0 1.763 0.529 1.763 1.602s-0.625 1.602-1.747 1.602-1.811-0.577-1.779-1.602 0.593-1.602 1.763-1.602z"></path>
</symbol>
<symbol id="icon-Documentation" viewBox="0 0 21 32">
<title>Documentation</title>
<path fill="#465a65" style="fill: var(--color4, #465a65)" d="M18.113 32c-0.706-0.005-1.348-0.279-1.828-0.724l0.002 0.002-16.287-15.289 16.287-15.267c0.453-0.362 1.033-0.582 1.666-0.582 1.478 0 2.675 1.198 2.675 2.675 0 0.69-0.261 1.32-0.691 1.794l0.002-0.002-12.146 11.382 12.146 11.382c0.522 0.489 0.847 1.184 0.847 1.954 0 1.477-1.197 2.674-2.673 2.675h-0z"></path>
</symbol>
<symbol id="icon-Help" viewBox="0 0 32 32">
<title>Help</title>
<path fill="#ff7a0c" style="fill: var(--color5, #ff7a0c)" d="M16.785 32h-1.571c-0.158-0.045-0.346-0.081-0.538-0.101l-0.014-0.001c-6.497-0.507-11.852-4.879-13.801-10.798l-0.032-0.112c-0.393-1.222-0.553-2.516-0.829-3.782v-2.415c0.045-0.149 0.086-0.33 0.114-0.516l0.003-0.022c0.628-6.314 4.937-11.478 10.726-13.351l0.11-0.031c1.151-0.353 2.543-0.659 3.97-0.856l0.146-0.017h1.716c0.132 0.048 0.288 0.088 0.45 0.114l0.016 0.002c6.346 0.456 11.603 4.66 13.596 10.393l0.033 0.109c0.375 1.152 0.714 2.559 0.951 4l0.024 0.174v2.415c-0.047 0.155-0.088 0.342-0.114 0.533l-0.002 0.019c-0.73 6.624-5.439 11.975-11.656 13.647l-0.111 0.025c-1.062 0.262-2.124 0.378-3.185 0.567zM16 28.378c6.817-0.025 12.335-5.557 12.335-12.378 0-6.836-5.542-12.378-12.378-12.378s-12.378 5.542-12.378 12.378v0c0.017 6.84 5.565 12.378 12.407 12.378 0.005 0 0.010 0 0.015 0h-0.001z"></path>
<path fill="#ff7a0c" style="fill: var(--color5, #ff7a0c)" d="M17.455 20.727h-2.793c-0.036-0.652-0.056-1.414-0.056-2.182s0.020-1.53 0.060-2.288l-0.004 0.106c0.185-0.602 0.553-1.103 1.039-1.449l0.008-0.006c0.528-0.431 1.117-0.849 1.734-1.226l0.070-0.040c0.584-0.355 0.968-0.987 0.968-1.709 0-0.105-0.008-0.209-0.024-0.309l0.001 0.011c-0.139-0.761-0.708-1.359-1.441-1.539l-0.013-0.003c-0.322-0.147-0.698-0.232-1.093-0.232-1.486 0-2.691 1.205-2.691 2.691 0 0.041 0.001 0.081 0.003 0.122l-0-0.006c0 0.349 0 0.698 0 1.12h-2.909c-0.032-0.23-0.051-0.496-0.051-0.767 0-3.213 2.605-5.818 5.818-5.818 2.524 0 4.672 1.607 5.478 3.853l0.013 0.041c0.122 0.369 0.192 0.794 0.192 1.235 0 1.469-0.78 2.755-1.949 3.468l-0.018 0.010c-1.369 0.646-2.3 2.015-2.3 3.602 0 0.296 0.032 0.584 0.094 0.861l-0.005-0.026c-0.029 0.18-0.074 0.342-0.136 0.495l0.005-0.015z"></path>
<path fill="#ff7a0c" style="fill: var(--color5, #ff7a0c)" d="M17.615 23.462c0 0.005 0 0.012 0 0.018 0 0.824-0.64 1.498-1.45 1.553l-0.005 0c-0.014 0-0.031 0.001-0.048 0.001-0.827 0-1.505-0.639-1.566-1.45l-0-0.005c-0.001-0.015-0.001-0.033-0.001-0.050 0-0.833 0.636-1.517 1.449-1.593l0.006-0c0.013-0 0.029-0.001 0.044-0.001 0.852 0 1.546 0.679 1.57 1.526l0 0.002z"></path>
</symbol>
<symbol id="icon-Images" viewBox="0 0 39 32">
<title>Images</title>
<path fill="#42a5f6" style="fill: var(--color1, #42a5f6)" d="M0 32v-32h39.409v32h-39.409zM2.483 2.443v27.113h34.463v-27.094z"></path>
<path fill="#42a5f6" style="fill: var(--color1, #42a5f6)" d="M22.187 19.704l4.926-3.704 7.369 11.074h-29.557l7.369-19.704z"></path>
<path fill="#42a5f6" style="fill: var(--color1, #42a5f6)" d="M27.133 8.571c0.023-2.018 1.663-3.645 3.684-3.645 2.035 0 3.685 1.65 3.685 3.685s-1.65 3.685-3.685 3.685c-0.021 0-0.041-0-0.062-0.001l0.003 0c-2.010-0.033-3.626-1.67-3.626-3.684 0-0.014 0-0.028 0-0.042l-0 0.002z"></path>
</symbol>
<symbol id="icon-Location" viewBox="0 0 21 32">
<title>Location</title>
<path fill="#42a5f6" style="fill: var(--color1, #42a5f6)" d="M10.425 32c-1.573-2.584-3.078-4.965-4.493-7.399-1.951-3.11-3.731-6.697-5.149-10.462l-0.138-0.419c-1.445-4.216-0.434-7.908 2.771-10.866 1.773-1.766 4.218-2.858 6.918-2.858 1.571 0 3.056 0.369 4.372 1.026l-0.057-0.026c3.651 1.459 6.184 4.966 6.184 9.065 0 0.115-0.002 0.229-0.006 0.343l0-0.017c-0.064 1.608-0.427 3.115-1.035 4.49l0.031-0.079c-2.314 6.066-5.789 11.525-9.399 17.202zM10.484 3.827c-3.722 0-6.74 3.018-6.74 6.74s3.018 6.74 6.74 6.74 6.74-3.018 6.74-6.74c0-0.021-0-0.042-0-0.063l0 0.003c-0.034-3.697-3.038-6.68-6.74-6.68-0 0-0 0-0 0h0z"></path>
</symbol>
<symbol id="icon-Marketing" viewBox="0 0 33 32">
<title>Marketing</title>
<path fill="#42a5f6" style="fill: var(--color1, #42a5f6)" d="M25.617 16.359h2.791l-0.317-2.473 1.27-0.234c0.279 1.072 0.439 2.302 0.439 3.57 0 5.122-2.616 9.633-6.585 12.271l-0.054 0.034c-2.318 1.555-5.171 2.481-8.24 2.481-8.241 0-14.922-6.681-14.922-14.922 0-3.221 1.021-6.204 2.756-8.643l-0.031 0.046c2.709-3.834 7.123-6.308 12.115-6.308 1.711 0 3.354 0.291 4.883 0.825l-0.104-0.032-0.351 1.22-3.626-0.668v2.824h-1.404v-2.573c-1.671 0.1-4.010 3.058-4.395 5.481h4.328v1.42h-3.175c-1.788 0-1.805 0-2.055 1.671-0.201 1.354-0.318 2.69-0.468 3.977h5.732v-4.178h1.404v4.211h4.228v1.454h-4.178v5.581c1.554 0 3.075 0 4.595 0 0.134 0 0.351-0.301 0.384-0.485 0.234-1.404 0.434-2.807 0.635-4.211 0-0.15 0-0.301 0-0.518h1.454l-0.668 5.18h4.428c0.188-0.038 0.344-0.155 0.433-0.314l0.002-0.003c0.812-1.511 1.346-3.286 1.485-5.17l0.003-0.043h-2.791zM7.72 10.678c-1.47 0-2.924 0-4.378 0-0.172 0.013-0.322 0.102-0.417 0.232l-0.001 0.002c-0.843 1.569-1.377 3.42-1.469 5.385l-0.001 0.029h5.564zM8.455 17.83c0.167 1.387 0.301 2.707 0.501 4.010 0.251 1.671 0.267 1.671 1.905 1.671h3.342v-5.681zM7.018 17.83h-5.564c0.102 1.938 0.616 3.735 1.454 5.335l-0.034-0.071c0.128 0.174 0.324 0.293 0.548 0.317l0.003 0c0.752 0 1.504 0 2.256 0h2.039zM9.809 24.881c0.585 2.356 2.674 5.397 4.361 5.464v-5.431zM15.641 30.413c2.216-1.040 3.829-3.049 4.303-5.466l0.008-0.048h-4.311zM8.054 9.257l2.557-5.013c-2.767 0.953-5.056 2.702-6.656 4.971l-0.028 0.042zM19.233 29.861c2.765-0.958 5.052-2.706 6.656-4.971l0.028-0.042h-4.194zM8.071 24.948h-4.111c1.641 2.272 3.928 3.986 6.59 4.885l0.094 0.028z"></path>
<path fill="#42a5f6" style="fill: var(--color1, #42a5f6)" d="M22.91 11.864l2.055 2.189c0.719 0.785 0.618 1.337-0.334 1.788l-1.671 0.769c-0.168 0.1-0.371 0.158-0.588 0.158-0.37 0-0.7-0.172-0.914-0.44l-0.002-0.002c-0.702-0.735-1.387-1.487-2.122-2.206-0.163-0.12-0.368-0.192-0.59-0.192-0.045 0-0.090 0.003-0.134 0.009l0.005-0.001c-0.106 0.035-0.229 0.055-0.356 0.055-0.485 0-0.901-0.295-1.079-0.716l-0.003-0.008c-0.668-1.404-1.337-2.841-1.989-4.261-0.099-0.165-0.158-0.365-0.158-0.578 0-0.517 0.345-0.954 0.818-1.091l0.008-0.002c1.153-0.551 2.339-1.053 3.476-1.671 0.399-0.231 0.737-0.521 1.014-0.862l0.005-0.007c1.37-1.454 2.59-2.891 3.877-4.345 0.434-0.485 0.969-0.318 1.287 0.351 0.852 1.805 1.671 3.626 2.54 5.431 0.652 1.42 1.32 2.841 1.988 4.261 0.451 0.969 0.217 1.387-0.835 1.42-1.671 0-3.459 0-5.18 0-0.317 0.050-0.635 0-1.12-0.050zM28.491 10.544l-3.893-8.355c-0.986 1.136-1.922 2.206-2.824 3.342-0.040 0.094-0.063 0.203-0.063 0.317s0.023 0.224 0.065 0.323l-0.002-0.005c0.618 1.354 1.237 2.707 1.888 4.027 0.123 0.208 0.334 0.353 0.581 0.384l0.004 0c1.337-0.017 2.707-0.033 4.244-0.033zM20.487 6.818l-3.776 1.805 1.671 3.843 3.843-1.805zM20.487 13.117l2.055 2.172 1.17-0.568c-0.635-0.668-1.203-1.303-1.805-1.888-0.11-0.074-0.245-0.119-0.391-0.119-0.057 0-0.112 0.007-0.165 0.020l0.005-0.001c-0.355 0.094-0.667 0.225-0.953 0.394l0.018-0.010z"></path>
<path fill="#42a5f6" style="fill: var(--color1, #42a5f6)" d="M31.983 8.505c-0.234 0-0.518 0-0.719 0s-0.568-0.418-0.585-0.652c0.038-0.31 0.239-0.566 0.512-0.683l0.006-0.002c0.251-0.046 0.54-0.072 0.835-0.072s0.584 0.026 0.865 0.077l-0.030-0.004c0.279 0.119 0.48 0.375 0.518 0.681l0 0.004c0 0.217-0.334 0.518-0.585 0.635-0.135 0.032-0.291 0.050-0.45 0.050-0.13 0-0.258-0.012-0.381-0.036l0.013 0.002z"></path>
<path fill="#42a5f6" style="fill: var(--color1, #42a5f6)" d="M32.15 2.924c0.234 0.217 0.535 0.368 0.585 0.585 0.013 0.056 0.021 0.12 0.021 0.185 0 0.219-0.084 0.418-0.222 0.567l0.001-0.001c-0.48 0.301-1.034 0.556-1.62 0.738l-0.051 0.014c-0.283-0.008-0.53-0.15-0.683-0.365l-0.002-0.003c-0.034-0.086-0.053-0.186-0.053-0.291 0-0.179 0.058-0.345 0.155-0.48l-0.002 0.002c0.508-0.304 1.122-0.622 1.755-0.906l0.116-0.047z"></path>
<path fill="#42a5f6" style="fill: var(--color1, #42a5f6)" d="M28.558 2.406c-0.021 0.002-0.046 0.004-0.070 0.004-0.378 0-0.685-0.307-0.685-0.685 0-0.145 0.045-0.279 0.122-0.39l-0.001 0.002c0.301-0.457 0.643-0.853 1.030-1.198l0.006-0.005c0.119-0.063 0.26-0.1 0.409-0.1s0.291 0.037 0.414 0.103l-0.005-0.002c0.184 0 0.384 0.568 0.301 0.685-0.446 0.628-0.879 1.172-1.339 1.693l0.019-0.022s-0.167-0.084-0.201-0.084z"></path>
</symbol>
<symbol id="icon-Placeholder" viewBox="0 0 31 32">
<title>Placeholder</title>
<path fill="#465a65" style="fill: var(--color4, #465a65)" opacity="0.2" d="M-0.002 0.090l0.094-0.091 9.243 9.591-0.094 0.091-9.243-9.591z"></path>
<path fill="#465a65" style="fill: var(--color4, #465a65)" opacity="0.2" d="M-0.001 31.908l9.243-9.591 0.094 0.091-9.243 9.591-0.094-0.091z"></path>
<path fill="#465a65" style="fill: var(--color4, #465a65)" opacity="0.2" d="M21.547 9.594l9.243-9.591 0.094 0.091-9.243 9.591-0.094-0.091z"></path>
<path fill="#465a65" style="fill: var(--color4, #465a65)" opacity="0.2" d="M21.546 22.407l0.094-0.091 9.243 9.591-0.094 0.091-9.243-9.591z"></path>
</symbol>
<symbol id="icon-Preview" viewBox="0 0 36 32">
<title>Preview</title>
<path fill="#5d4038" style="fill: var(--color6, #5d4038)" d="M27.307 14.711v13.773c0.002 0.032 0.004 0.069 0.004 0.106 0 0.82-0.665 1.485-1.485 1.485-0.037 0-0.074-0.001-0.111-0.004l0.005 0h-22.187c-0.069 0.011-0.149 0.018-0.23 0.018-0.82 0-1.485-0.665-1.485-1.485 0-0.054 0.003-0.108 0.009-0.161l-0.001 0.007v-15.906h15.241c-2.961-1.062-5.345-3.125-6.794-5.772l-0.033-0.065h-6.827c-0.001 0-0.001 0-0.002 0-1.885 0-3.413 1.528-3.413 3.413 0 0.042 0.001 0.084 0.002 0.126l-0-0.006v18.244c0 0 0 0.001 0 0.001 0 1.885 1.528 3.413 3.413 3.413 0.030 0 0.060-0 0.090-0.001l-0.004 0q11.093 0 22.187 0c0 0 0 0 0 0 0.446 0 0.874-0.075 1.273-0.213l-0.027 0.008c1.337-0.483 2.275-1.741 2.275-3.218 0-0.069-0.002-0.137-0.006-0.205l0 0.009v-14.438c-0.512 0.283-1.136 0.576-1.779 0.83l-0.116 0.040zM9.284 8.243c0.66 0 1.195 0.535 1.195 1.195s-0.535 1.195-1.195 1.195c-0.66 0-1.195-0.535-1.195-1.195v0c0-0.66 0.535-1.195 1.195-1.195v0zM5.291 8.243c0.66 0 1.195 0.535 1.195 1.195s-0.535 1.195-1.195 1.195c-0.66 0-1.195-0.535-1.195-1.195v0c0-0.66 0.535-1.195 1.195-1.195v0z"></path>
<path fill="#5d4038" style="fill: var(--color6, #5d4038)" d="M8.294 14.49h3.789c0.444 0 0.58 0.154 0.58 0.597v6.707c0 0.461-0.137 0.597-0.597 0.597h-7.561c-0.478 0-0.614-0.137-0.614-0.597v-6.707c0-0.461 0.137-0.597 0.614-0.597z"></path>
<path fill="#5d4038" style="fill: var(--color6, #5d4038)" d="M19.951 14.49h4.693c0.478 0 0.631 0.154 0.631 0.666 0 1.502 0 3.021 0 4.523 0 0.478-0.154 0.631-0.631 0.631h-9.284c-0.529 0-0.666-0.154-0.666-0.683v-4.471c0-0.495 0.154-0.666 0.631-0.666z"></path>
<path fill="#5d4038" style="fill: var(--color6, #5d4038)" d="M8.209 28.092h-3.738c-0.444 0-0.58-0.137-0.58-0.58v-2.321c0-0.375 0.154-0.529 0.529-0.529h7.526c0.358 0 0.512 0.154 0.512 0.529v2.372c0 0.393-0.154 0.529-0.546 0.529z"></path>
<path fill="#5d4038" style="fill: var(--color6, #5d4038)" d="M15.241 24.695v-2.782c0-0.444 0.171-0.597 0.614-0.597h3.635c0.427 0 0.597 0.171 0.597 0.58v5.581c0 0.461-0.171 0.614-0.614 0.614h-3.652c-0.393 0-0.58-0.171-0.58-0.58v-2.816z"></path>
<path fill="#5d4038" style="fill: var(--color6, #5d4038)" d="M24.695 0c1.383 0.052 2.673 0.399 3.825 0.98l-0.053-0.024c2.303 1.131 4.285 2.486 6.046 4.081l-0.022-0.019 1.092 0.99c0.171 0.154 0.278 0.376 0.278 0.623s-0.107 0.469-0.278 0.622l-0.001 0.001c-2.147 2.147-4.666 3.923-7.451 5.223l-0.161 0.067c-1.005 0.465-2.181 0.737-3.421 0.737-0.075 0-0.151-0.001-0.225-0.003l0.011 0c-1.263-0.122-2.421-0.468-3.469-0.998l0.056 0.025c-2.309-1.12-4.298-2.464-6.066-4.049l0.024 0.021c-0.375-0.324-0.734-0.666-1.092-1.007-0.171-0.154-0.278-0.376-0.278-0.623s0.107-0.469 0.278-0.622l0.001-0.001c2.143-2.13 4.649-3.899 7.416-5.205l0.162-0.069c0.977-0.451 2.117-0.725 3.319-0.751l0.009-0zM24.695 1.843c-2.636 0.029-4.762 2.173-4.762 4.813 0 2.658 2.155 4.813 4.813 4.813s4.813-2.155 4.813-4.813v-0c-0.010-2.66-2.168-4.813-4.83-4.813 0 0-0 0-0 0v0z"></path>
<path fill="#5d4038" style="fill: var(--color6, #5d4038)" d="M27.733 6.639c-0.010 1.689-1.381 3.054-3.072 3.054-1.697 0-3.072-1.375-3.072-3.072s1.375-3.072 3.072-3.072c0.018 0 0.036 0 0.054 0l-0.003-0c1.673 0.019 3.021 1.379 3.021 3.055 0 0.012-0 0.024-0 0.036l0-0.002zM24.883 5.666c-0.005 0.038-0.009 0.082-0.009 0.127 0 0.528 0.428 0.956 0.956 0.956s0.956-0.428 0.956-0.956c0-0.045-0.003-0.089-0.009-0.132l0.001 0.005c0-0 0-0 0-0 0-0.528-0.428-0.956-0.956-0.956-0.006 0-0.012 0-0.018 0h0.001c-0.511 0.010-0.922 0.426-0.922 0.939 0 0.006 0 0.012 0 0.018v-0.001z"></path>
</symbol>
<symbol id="icon-Projects" viewBox="0 0 32 32">
<title>Projects</title>
<path fill="#42a5f6" style="fill: var(--color1, #42a5f6)" d="M6.256 32c-0.712-0.224-1.315-0.473-1.892-0.768l0.068 0.032c-1.416-0.89-2.343-2.443-2.343-4.213 0-0.326 0.032-0.645 0.092-0.954l-0.005 0.031c0-0.224 0.496-0.496 0.752-0.512 1.312 0 2.608 0 4.016 0v-9.616h1.056v9.6h17.6c1.072 0 1.104 0 1.104 1.12-0.012 0.115-0.019 0.249-0.019 0.384 0 1.898 1.383 3.474 3.197 3.773l0.022 0.003c0.96 0.16 1.152 0 1.152-0.96v-28.832h-23.056v7.408h-1.040v-1.6c0-1.984 0-3.984 0-5.968 0.063-0.349 0.163-0.66 0.298-0.952l-0.010 0.024h24.752v30.72l-1.136 1.28zM3.2 26.688c-0.020 0.145-0.031 0.312-0.031 0.482 0 2.085 1.691 3.776 3.776 3.776 0.045 0 0.089-0.001 0.133-0.002l-0.006 0h19.632c0.16 0 0.336 0 0.544 0-1.022-1.024-1.654-2.438-1.654-4 0-0.090 0.002-0.18 0.006-0.269l-0 0.013z"></path>
<path fill="#42a5f6" style="fill: var(--color1, #42a5f6)" d="M0 11.808c0.736-1.808 1.312-2.208 3.2-2.208h13.872c0.030-0.002 0.065-0.003 0.1-0.003 0.43 0 0.816 0.186 1.082 0.482l0.001 0.001c0.512 0.566 1.034 1.088 1.581 1.583l0.019 0.017c0.176 0.12 0.289 0.318 0.289 0.544s-0.114 0.424-0.287 0.543l-0.002 0.001c-0.608 0.592-1.2 1.232-1.824 1.792-0.212 0.19-0.491 0.31-0.798 0.32l-0.002 0q-7.296 0-14.576 0c-1.27-0.023-2.332-0.889-2.651-2.060l-0.005-0.020zM4.304 13.856h12.080l-0.272-1.056h-10.704v-1.040h9.904c0.928 0 0.992 0 0.96-1.040h-11.968zM3.2 13.84v-3.2c-0.138-0.040-0.296-0.063-0.46-0.063-0.594 0-1.117 0.302-1.424 0.761l-0.004 0.006c-0.184 0.245-0.294 0.553-0.294 0.888s0.11 0.643 0.297 0.892l-0.003-0.004c0.282 0.482 0.797 0.801 1.386 0.801 0.179 0 0.352-0.030 0.513-0.084l-0.011 0.003zM18.752 12.24l-1.28-1.472c-0.204 0.401-0.324 0.875-0.324 1.376s0.119 0.975 0.332 1.394l-0.008-0.018z"></path>
<path fill="#42a5f6" style="fill: var(--color1, #42a5f6)" d="M30.864 32l1.136-1.28v1.28z"></path>
<path fill="#42a5f6" style="fill: var(--color1, #42a5f6)" d="M20.272 22.912h-7.616c-0.319-0.053-0.604-0.159-0.859-0.31l0.011 0.006c0.068-0.317 0.196-0.596 0.372-0.838l-0.004 0.006q7.712-7.776 15.44-15.376c0.239-0.164 0.515-0.295 0.812-0.379l0.020-0.005c0.142 0.249 0.248 0.54 0.302 0.848l0.002 0.016c0 5.072 0 10.144 0 15.216 0 0.688-0.224 0.912-0.912 0.912-2.496-0.112-5.040-0.096-7.568-0.096zM16 20.8l0.096 1.008h1.024v-0.992h0.944l0.112 0.992h1.024v-1.008h0.96v0.976h1.008v-0.976h1.232v0.992h1.024v-1.008h0.96l0.096 0.992h1.12v-0.976h0.96l0.112 0.992h0.992v-0.992h-0.96v-0.96h0.96v-1.040h-0.944v-1.2h0.928v-1.040l-0.944-0.080v-0.96h0.96v-1.12h-0.944v-1.008h0.928v-1.104h-0.928v-1.088h0.944v-1.072h-0.96v-1.008h0.944v-1.12l-13.84 13.856h1.088v-1.024z"></path>
<path fill="#42a5f6" style="fill: var(--color1, #42a5f6)" d="M22.4 19.728c-0.752 0-1.504 0-2.272 0-0.256-0.014-0.48-0.142-0.622-0.334l-0.002-0.002c-0.005-0.032-0.007-0.069-0.007-0.107 0-0.215 0.089-0.41 0.231-0.549l0-0c1.6-1.6 3.2-3.2 4.8-4.8 0.134-0.127 0.316-0.205 0.516-0.205 0.049 0 0.098 0.005 0.145 0.014l-0.005-0.001c0.239 0.129 0.402 0.372 0.416 0.654l0 0.002c0 1.6 0 3.2 0 4.688 0 0.528-0.256 0.72-0.736 0.72zM24.48 18.64v-2.864l-2.896 2.864z"></path>
</symbol>
<symbol id="icon-Publish" viewBox="0 0 29 32">
<title>Publish</title>
<path fill="#5d4038" style="fill: var(--color6, #5d4038)" d="M26.532 0c0.284 1.052 0.447 2.259 0.447 3.505 0 0.928-0.091 1.835-0.263 2.713l0.015-0.088c-0.653 3.481-2.006 6.563-3.913 9.221l0.047-0.069c-0.628 0.909-1.305 1.801-1.999 2.726 0.281 0.396 0.545 0.859 0.876 1.272 0.253 0.329 0.405 0.747 0.405 1.2 0 0.264-0.052 0.516-0.145 0.746l0.005-0.013c-0.083 0.215-0.149 0.43-0.248 0.628l-2.742 4.824-2.395-4.675c-0.413 0.396-0.826 0.776-1.189 1.189s-0.33 0.231-0.562 0.083c-0.925-0.545-1.85-1.090-2.775-1.652-0.111-0.039-0.19-0.143-0.19-0.266 0-0.041 0.009-0.081 0.025-0.116l-0.001 0.002c0.165-0.562 0.314-1.123 0.479-1.652l-5.22 0.248 0.116-0.248c0.776-1.338 1.536-2.676 2.329-3.998 0.312-0.497 0.644-0.93 1.013-1.327l-0.005 0.006c0.301-0.309 0.72-0.501 1.185-0.501 0.095 0 0.188 0.008 0.278 0.023l-0.010-0.001 1.503 0.116c0.198 0 0.215-0.116 0.264-0.231 0.562-1.239 1.008-2.511 1.669-3.75 1.424-2.801 3.317-5.163 5.599-7.076l0.035-0.028c1.473-1.258 3.236-2.224 5.171-2.784l0.099-0.024zM21.328 7.252c-0.946 0.028-1.702 0.801-1.702 1.75 0 0.967 0.784 1.751 1.751 1.751 0.961 0 1.741-0.774 1.751-1.733v-0.001c0-0.010 0-0.022 0-0.034 0-0.958-0.777-1.735-1.735-1.735-0.023 0-0.047 0-0.070 0.001l0.003-0z"></path>
<path fill="#5d4038" style="fill: var(--color6, #5d4038)" d="M10.722 30.265c0.843-1.437 2.181-3.833 2.941-5.204v0c0.082-0.203 0.278-0.343 0.506-0.343 0.093 0 0.18 0.023 0.256 0.064l-0.003-0.001 0.182 0.116c0.154 0.090 0.257 0.255 0.257 0.444 0 0.099-0.028 0.191-0.076 0.269l0.001-0.002c-0.793 1.47-2.049 3.535-2.775 4.956zM8.078 30.265c0.975-1.85 2.61-4.593 3.585-6.459v0c0.091-0.166 0.265-0.277 0.465-0.277 0.103 0 0.199 0.029 0.28 0.080l-0.002-0.001 0.182 0.116c0.158 0.093 0.263 0.263 0.263 0.457 0 0.093-0.024 0.18-0.066 0.256l0.001-0.003c-1.024 1.883-2.511 4.411-3.469 6.228zM5.419 30.265c1.189-2.313 3.056-5.485 4.246-7.748v0c0.090-0.171 0.266-0.285 0.469-0.285 0.108 0 0.209 0.032 0.293 0.088l-0.002-0.001 0.182 0.099c0.149 0.099 0.245 0.266 0.245 0.455 0 0.093-0.023 0.181-0.065 0.258l0.001-0.003c-1.206 2.28-2.941 5.237-4.18 7.5z"></path>
<path fill="#5d4038" style="fill: var(--color6, #5d4038)" d="M29.456 9.995c0-0.002 0-0.005 0-0.007 0-0.296-0.036-0.584-0.104-0.86l0.005 0.025c-0.11-0.478-0.305-0.899-0.569-1.266l0.007 0.010c-0.677 1.763-1.372 3.232-2.158 4.642l0.093-0.182h0.793v16.107c0.005 0.047 0.008 0.102 0.008 0.157 0 0.83-0.673 1.503-1.503 1.503-0.055 0-0.11-0.003-0.164-0.009l0.007 0.001h-22.286c-0.053 0.007-0.114 0.010-0.176 0.010-0.821 0-1.487-0.666-1.487-1.487 0-0.062 0.004-0.123 0.011-0.183l-0.001 0.007v-16.107h10.193c0.543-2.23 1.402-4.192 2.54-5.957l-0.046 0.076h-11.118c-0.025-0.001-0.054-0.001-0.083-0.001-1.889 0-3.42 1.531-3.42 3.42 0 0.006 0 0.012 0 0.018v-0.001 18.552c-0.001 0.035-0.002 0.076-0.002 0.118 0 1.889 1.531 3.42 3.42 3.42 0.041 0 0.083-0.001 0.124-0.002l-0.006 0h22.385c0.451-0.006 0.882-0.084 1.284-0.223l-0.029 0.009c1.34-0.478 2.281-1.735 2.281-3.213 0-0.032-0-0.064-0.001-0.096l0 0.005zM9.384 8.029c0.659 0.009 1.189 0.546 1.189 1.206 0 0.666-0.54 1.206-1.206 1.206s-1.206-0.54-1.206-1.206v0c0-0 0-0 0-0 0-0.666 0.54-1.206 1.206-1.206 0.006 0 0.012 0 0.017 0h-0.001zM5.353 8.029c0.666 0 1.206 0.54 1.206 1.206s-0.54 1.206-1.206 1.206v0c-0.666 0-1.206-0.54-1.206-1.206s0.54-1.206 1.206-1.206v0z"></path>
</symbol>
<symbol id="icon-Schedule" viewBox="0 0 33 32">
<title>Schedule</title>
<path fill="#42a5f6" style="fill: var(--color1, #42a5f6)" d="M6.112 2.386v-1.994c0.018-0.22 0.2-0.392 0.424-0.392 0 0 0.001 0 0.001 0h1.307c0.185 0.017 0.328 0.171 0.328 0.358 0 0.012-0.001 0.024-0.002 0.035l0-0.001v4.396c0.001 0.010 0.002 0.021 0.002 0.033 0 0.199-0.161 0.36-0.36 0.36-0.006 0-0.013-0-0.019-0l0.001 0h-1.258c-0.235 0-0.425-0.19-0.425-0.425v0-0.327h-3.89c-0.147 0-0.196 0-0.196 0.196 0 0.833 0 1.634 0 2.501v0.18h23.093v-2.876h-4.037c0.004 0.051 0.006 0.111 0.006 0.172s-0.002 0.12-0.007 0.18l0-0.008c0 0.005 0 0.011 0 0.017 0 0.217-0.176 0.392-0.392 0.392-0.006 0-0.012-0-0.018-0l0.001 0h-1.291c-0.011 0.001-0.024 0.002-0.037 0.002-0.19 0-0.343-0.154-0.343-0.343 0-0.018 0.001-0.036 0.004-0.053l-0 0.002v-4.38c-0.001-0.010-0.001-0.021-0.001-0.033 0-0.208 0.168-0.376 0.376-0.376 0 0 0.001 0 0.002 0h1.275c0 0 0.001 0 0.001 0 0.235 0 0.425 0.19 0.425 0.425 0 0.012-0 0.023-0.001 0.034l0-0.002v1.749s0 0.098 0 0.18h0.163c1.258 0 2.517 0 3.775 0 0.013-0 0.029-0 0.044-0 0.987 0 1.812 0.694 2.013 1.621l0.002 0.014c0.008 0.078 0.012 0.169 0.012 0.261s-0.004 0.183-0.013 0.273l0.001-0.011q0 5.393 0 10.787v0.163l-2.043-0.474v-5.916h-22.995v0.18c0 5.312 0 10.607 0 15.918 0 0.163 0 0.212 0.212 0.212h12.813l0.523 2.043h-13.467c-0.017 0.001-0.038 0.001-0.058 0.001-1.040 0-1.903-0.759-2.065-1.754l-0.002-0.012c-0.004-0.054-0.006-0.117-0.006-0.18s0.002-0.126 0.007-0.188l-0 0.008v-20.838c-0-0.015-0.001-0.032-0.001-0.049 0-1.137 0.922-2.059 2.059-2.059 0.012 0 0.023 0 0.035 0l-0.002-0c1.258 0 2.533 0 3.792 0z"></path>
<path fill="#42a5f6" style="fill: var(--color1, #42a5f6)" d="M31.461 21.442c0.32 0.816 0.506 1.761 0.506 2.75 0 2.694-1.378 5.066-3.468 6.45l-0.029 0.018c-1.222 0.827-2.729 1.321-4.351 1.321-4.323 0-7.828-3.505-7.828-7.828s3.505-7.828 7.828-7.828c1.756 0 3.376 0.578 4.682 1.554l-0.021-0.015-1.095 0.883c-0.035 0.036-0.085 0.058-0.139 0.058s-0.103-0.022-0.139-0.058v0c-0.922-0.584-2.044-0.931-3.247-0.931-0.221 0-0.438 0.012-0.653 0.034l0.027-0.002c-3.206 0.318-5.689 3.001-5.689 6.263 0 3.475 2.817 6.292 6.292 6.292 3.159 0 5.775-2.328 6.224-5.363l0.004-0.034c0.042-0.27 0.067-0.581 0.067-0.898 0-0.499-0.060-0.984-0.173-1.448l0.009 0.042c-0.027-0.033-0.043-0.076-0.043-0.123s0.016-0.089 0.043-0.123l-0 0z"></path>
<path fill="#42a5f6" style="fill: var(--color1, #42a5f6)" d="M24.123 23.24l7.289-5.867c0.125-0.092 0.282-0.148 0.453-0.148 0.424 0 0.768 0.344 0.768 0.768 0 0.195-0.072 0.373-0.192 0.508l0.001-0.001-2.566 2.648-4.903 4.903c-0.231 0.248-0.559 0.403-0.923 0.403-0.409 0-0.773-0.195-1.003-0.498l-0.002-0.003-3.122-4.086c-0.111-0.134-0.179-0.309-0.179-0.498s0.067-0.364 0.18-0.5l-0.001 0.001c0.141-0.197 0.369-0.324 0.627-0.324 0.11 0 0.215 0.023 0.309 0.065l-0.005-0.002c0.116 0.036 0.215 0.098 0.294 0.18l0 0 2.795 2.272z"></path>
<path fill="#42a5f6" style="fill: var(--color1, #42a5f6)" d="M6.668 13.075h1.879c0.327 0 0.458 0.131 0.458 0.458v2.451c0 0.376-0.131 0.507-0.49 0.507h-3.612c-0.36 0-0.49-0.131-0.49-0.49v-2.533c0-0.327 0.131-0.458 0.458-0.458z"></path>
<path fill="#42a5f6" style="fill: var(--color1, #42a5f6)" d="M13.581 16.49h-1.863c-0.327 0-0.458-0.147-0.458-0.49v-2.533c0-0.392 0.18-0.392 0.474-0.392h3.726c0.327 0 0.474 0.131 0.474 0.474v2.468c0 0.327-0.147 0.474-0.474 0.474z"></path>
<path fill="#42a5f6" style="fill: var(--color1, #42a5f6)" d="M6.668 19.187h1.879c0.311 0 0.458 0.131 0.458 0.441v2.582c0.004 0.022 0.007 0.047 0.007 0.072 0 0.217-0.176 0.392-0.392 0.392-0.025 0-0.050-0.002-0.075-0.007l0.002 0h-3.775c-0.294 0-0.441-0.147-0.441-0.458v-2.599c0-0.311 0.147-0.441 0.458-0.441z"></path>
<path fill="#42a5f6" style="fill: var(--color1, #42a5f6)" d="M15.134 22.668h-3.432c-0.311 0-0.441-0.147-0.441-0.458v-2.599c0-0.327 0.131-0.458 0.458-0.458h3.743c0.327 0 0.458 0.131 0.474 0.458 0.003 0.037 0.004 0.081 0.004 0.124 0 0.294-0.068 0.571-0.189 0.818l0.005-0.011c-0.266 0.554-0.471 1.196-0.583 1.87l-0.006 0.042c0 0 0 0 0 0.001 0 0.076-0.012 0.149-0.034 0.217l0.001-0.005z"></path>
<path fill="#42a5f6" style="fill: var(--color1, #42a5f6)" d="M9.986 2.386h7.126v2.027h-7.126z"></path>
<path fill="#42a5f6" style="fill: var(--color1, #42a5f6)" d="M22.881 15.134c-1.34 0.193-2.543 0.648-3.601 1.313l0.038-0.022c-0.037 0.008-0.079 0.013-0.123 0.013s-0.086-0.005-0.127-0.013l0.004 0.001h-0.474c-0 0-0 0-0 0-0.208 0-0.376-0.168-0.376-0.376 0-0.006 0-0.011 0-0.017l-0 0.001c0-0.899 0-1.814 0-2.713 0.049-0.145 0.183-0.247 0.341-0.247 0.012 0 0.024 0.001 0.036 0.002l-0.002-0h3.89c0.010-0.001 0.022-0.002 0.034-0.002 0.179 0 0.325 0.136 0.342 0.311l0 0.001z"></path>
</symbol>
<symbol id="icon-Settings" viewBox="0 0 27 32">
<title>Settings</title>
<path fill="#42a5f6" style="fill: var(--color1, #42a5f6)" d="M1.28 25.12c0.057-0.3 0.206-0.558 0.415-0.751l0.001-0.001c0.336-0.336 0.672-0.672 1.024-0.992 0 0 0-0.112 0-0.208l-0.288-1.28c-0.020-0.056-0.060-0.101-0.111-0.127l-0.001-0.001-1.328-0.496c-0.595-0.242-1.006-0.816-1.006-1.486 0-0.074 0.005-0.147 0.015-0.219l-0.001 0.008c0.112-0.656 0.24-1.312 0.352-1.952 0.16-0.728 0.8-1.264 1.564-1.264 0.012 0 0.025 0 0.037 0l-0.002-0h1.328c0.004 0 0.009 0.001 0.013 0.001 0.065 0 0.122-0.039 0.146-0.096l0-0.001c0.24-0.384 0.464-0.752 0.72-1.12 0.018-0.027 0.029-0.060 0.029-0.096s-0.011-0.069-0.029-0.097l0 0.001-0.576-1.248c-0.114-0.204-0.181-0.448-0.181-0.707 0-0.511 0.26-0.961 0.656-1.225l0.005-0.003c0.56-0.4 1.12-0.8 1.68-1.168 0.233-0.155 0.519-0.247 0.826-0.247 0.423 0 0.804 0.174 1.078 0.455l0 0 0.992 1.024c0.022 0.018 0.050 0.028 0.080 0.028s0.058-0.011 0.080-0.028l-0 0 1.312-0.288c0.061-0.010 0.11-0.054 0.128-0.111l0-0.001c0.16-0.464 0.336-0.912 0.496-1.376 0.246-0.588 0.816-0.993 1.48-0.993 0.082 0 0.162 0.006 0.241 0.018l-0.009-0.001 1.952 0.432c0.728 0.16 1.264 0.8 1.264 1.564 0 0.012-0 0.025-0 0.037l0-0.002c0 0.448 0 0.88 0 1.328-0.001 0.006-0.001 0.012-0.001 0.019 0 0.068 0.039 0.128 0.096 0.157l0.001 0 1.168 0.736c0.025 0.023 0.059 0.037 0.096 0.037s0.071-0.014 0.096-0.037l-0 0 1.232-0.544c0.192-0.097 0.419-0.154 0.659-0.154 0.509 0 0.958 0.255 1.226 0.645l0.003 0.005c0.4 0.544 0.8 1.104 1.168 1.68 0.16 0.232 0.256 0.52 0.256 0.83 0 0.407-0.165 0.776-0.432 1.042l-0 0c-0.336 0.352-0.688 0.688-1.040 1.024-0.020 0.026-0.032 0.060-0.032 0.096s0.012 0.070 0.032 0.096l-0-0c0.112 0.416 0.192 0.848 0.288 1.28 0.009 0.070 0.052 0.129 0.111 0.159l0.001 0.001 1.392 0.496c0.558 0.218 0.945 0.751 0.945 1.375 0 0.080-0.006 0.158-0.018 0.234l0.001-0.008c-0.112 0.672-0.224 1.344-0.352 2.016-0.172 0.712-0.804 1.233-1.557 1.233-0.015 0-0.030-0-0.045-0.001l0.002 0h-1.44s-0.096 0-0.128 0.080l-0.736 1.136c-0.020 0.026-0.032 0.060-0.032 0.096s0.012 0.070 0.032 0.096l-0-0c0.208 0.4 0.4 0.816 0.592 1.232 0.091 0.195 0.144 0.423 0.144 0.664 0 0.536-0.263 1.010-0.668 1.3l-0.005 0.003-1.6 1.088c-0.242 0.181-0.547 0.29-0.877 0.29-0.408 0-0.777-0.166-1.043-0.433l-0-0c-0.352-0.336-0.672-0.672-1.008-1.024-0.029-0.021-0.065-0.034-0.104-0.034s-0.075 0.013-0.104 0.034l0-0-1.28 0.272c-0.070 0.011-0.125 0.061-0.144 0.127l-0 0.001c-0.16 0.464-0.32 0.912-0.496 1.376-0.255 0.564-0.814 0.95-1.462 0.95-0.049 0-0.097-0.002-0.144-0.006l0.006 0-2.016-0.368c-0.696-0.184-1.201-0.808-1.201-1.549 0-0.018 0-0.036 0.001-0.053l-0 0.003c0-0.448 0-0.88 0-1.328-0.010-0.066-0.045-0.122-0.095-0.16l-0.001-0-1.072-0.704c-0.025-0.015-0.056-0.024-0.088-0.024s-0.063 0.009-0.089 0.024l0.001-0-1.296 0.608c-0.193 0.098-0.421 0.156-0.663 0.156-0.516 0-0.971-0.263-1.238-0.662l-0.003-0.005-1.136-1.6c-0.21-0.252-0.337-0.58-0.337-0.937 0-0.133 0.018-0.263 0.051-0.385l-0.002 0.010zM12.192 10.72c-0.002 0.026-0.003 0.057-0.003 0.088s0.001 0.062 0.003 0.092l-0-0.004c-0.208 0.56-0.416 1.12-0.608 1.6-0.098 0.322-0.389 0.553-0.735 0.56h-0.001c-0.723 0.059-1.391 0.218-2.016 0.465l0.048-0.017c-0.084 0.032-0.182 0.051-0.284 0.051-0.235 0-0.447-0.099-0.596-0.258l-0-0c-0.416-0.448-0.848-0.88-1.28-1.328 0 0-0.096 0-0.16 0l-1.456 1.008s-0.096 0.096 0 0.176l0.8 1.712c0.057 0.101 0.091 0.222 0.091 0.35 0 0.178-0.065 0.341-0.172 0.467l0.001-0.001c-0.443 0.512-0.823 1.097-1.117 1.73l-0.019 0.046c-0.116 0.275-0.383 0.464-0.695 0.464-0.009 0-0.018-0-0.026-0l0.001 0h-2.096l-0.272 1.84c-0.006 0.017-0.010 0.036-0.010 0.056s0.004 0.039 0.010 0.057l-0-0.001c0.592 0.208 1.168 0.432 1.76 0.624 0.322 0.098 0.553 0.389 0.56 0.735v0.001c0.066 0.73 0.225 1.403 0.465 2.036l-0.017-0.052c0.035 0.084 0.055 0.182 0.055 0.284 0 0.223-0.095 0.423-0.246 0.563l-0 0-0.88 0.864-0.512 0.496 1.136 1.6 1.728-0.816c0.105-0.059 0.231-0.094 0.364-0.094 0.192 0 0.368 0.072 0.5 0.191l-0.001-0.001c0.501 0.42 1.069 0.789 1.679 1.083l0.049 0.021c0.258 0.118 0.435 0.374 0.435 0.672 0 0.023-0.001 0.045-0.003 0.067l0-0.003c0 0.608 0 1.232 0 1.84 0 0.112 0 0.128 0.112 0.144l1.712 0.32h0.128c0.224-0.624 0.448-1.232 0.656-1.84 0.078-0.29 0.321-0.507 0.62-0.544l0.004-0c0.787-0.063 1.515-0.228 2.2-0.482l-0.056 0.018c0.071-0.026 0.154-0.041 0.239-0.041 0.217 0 0.412 0.096 0.544 0.248l0.001 0.001c0.288 0.272 0.56 0.56 0.832 0.832l0.544 0.56 1.6-1.136c0.002-0.022 0.003-0.047 0.003-0.072s-0.001-0.050-0.003-0.075l0 0.003c-0.256-0.528-0.512-1.072-0.752-1.6-0.064-0.105-0.102-0.233-0.102-0.369 0-0.192 0.075-0.367 0.198-0.496l-0 0c0.436-0.514 0.816-1.098 1.115-1.728l0.021-0.048c0.13-0.255 0.388-0.427 0.687-0.432h2.017l0.352-1.952-1.84-0.672c-0.301-0.088-0.521-0.351-0.544-0.67l-0-0.002c-0.048-0.748-0.208-1.446-0.464-2.095l0.016 0.047c-0.031-0.079-0.049-0.171-0.049-0.266 0-0.225 0.099-0.427 0.256-0.565l0.001-0.001 0.912-0.896 0.48-0.48-1.136-1.6h-0.128l-1.6 0.784c-0.112 0.078-0.25 0.125-0.4 0.125s-0.288-0.047-0.402-0.126l0.002 0.002c-0.539-0.471-1.156-0.873-1.825-1.18l-0.047-0.020c-0.239-0.111-0.402-0.349-0.402-0.626 0-0.016 0.001-0.033 0.002-0.049l-0 0.002c0-0.624 0-1.248 0-1.872 0-0.112 0-0.144-0.112-0.16l-1.152-0.208z"></path>
<path fill="#42a5f6" style="fill: var(--color1, #42a5f6)" d="M10.656 25.504c-2.4-0.391-4.21-2.45-4.21-4.93 0-2.757 2.235-4.992 4.992-4.992s4.992 2.235 4.992 4.992c0 0.278-0.023 0.55-0.066 0.815l0.004-0.029c-0.401 2.398-2.461 4.203-4.943 4.203-0.271 0-0.538-0.022-0.798-0.063l0.029 0.004zM14.864 21.184c0.035-0.185 0.055-0.397 0.055-0.615 0-1.926-1.562-3.488-3.488-3.488s-3.488 1.562-3.488 3.488c0 1.703 1.221 3.122 2.836 3.427l0.022 0.003c0.19 0.037 0.408 0.057 0.631 0.057 1.709 0 3.131-1.229 3.43-2.852l0.003-0.021z"></path>
<path fill="#42a5f6" style="fill: var(--color1, #42a5f6)" d="M15.088 6.256c0.094-0.137 0.225-0.242 0.378-0.302l0.006-0.002 0.72-0.256s0 0 0.080-0.096 0.096-0.464 0.128-0.704 0 0 0-0.080-0.368-0.368-0.56-0.544c-0.171-0.153-0.277-0.374-0.277-0.62 0-0.168 0.050-0.324 0.135-0.455l-0.002 0.003 0.624-0.896c0.152-0.222 0.404-0.365 0.689-0.365 0.14 0 0.272 0.035 0.388 0.096l-0.005-0.002 0.656 0.304s0 0 0.096 0l0.608-0.4s0 0 0-0.096 0-0.496 0-0.752c-0.001-0.013-0.001-0.029-0.001-0.045 0-0.4 0.288-0.733 0.668-0.803l0.005-0.001 1.136-0.24c0.042-0.008 0.090-0.012 0.139-0.012 0.349 0 0.645 0.223 0.755 0.535l0.002 0.006c0.096 0.24 0.192 0.48 0.272 0.736h0.080l0.704 0.16s0 0 0.096 0l0.56-0.576c0.151-0.155 0.362-0.251 0.596-0.251 0.172 0 0.331 0.052 0.463 0.141l-0.003-0.002 0.896 0.608c0.222 0.152 0.365 0.404 0.365 0.689 0 0.14-0.035 0.272-0.096 0.388l0.002-0.005c-0.096 0.224-0.208 0.448-0.304 0.656-0.011 0.016-0.018 0.035-0.018 0.056s0.007 0.040 0.018 0.056l-0-0 0.4 0.624c0.014 0.007 0.031 0.011 0.048 0.011s0.034-0.004 0.049-0.011l-0.001 0h0.768c0.013-0.001 0.029-0.001 0.045-0.001 0.391 0 0.717 0.281 0.786 0.652l0.001 0.005c0.080 0.368 0.144 0.736 0.208 1.104 0.008 0.043 0.013 0.094 0.013 0.145 0 0.343-0.216 0.636-0.52 0.75l-0.006 0.002-0.736 0.272s0 0-0.080 0.096-0.096 0.464-0.144 0.704 0 0 0 0.096l0.576 0.56c0.147 0.145 0.238 0.347 0.238 0.569 0 0.17-0.053 0.328-0.144 0.457l0.002-0.003-0.624 0.912c-0.148 0.221-0.397 0.364-0.68 0.364-0.125 0-0.244-0.028-0.349-0.078l0.005 0.002-0.72-0.336h-0.080l-0.624 0.4c-0.008 0.014-0.013 0.030-0.013 0.048s0.005 0.034 0.013 0.048l-0-0c0 0.24 0 0.496 0 0.736 0.001 0.017 0.002 0.036 0.002 0.055 0 0.412-0.305 0.752-0.702 0.808l-0.004 0.001-1.024 0.192c-0.075 0.024-0.161 0.039-0.25 0.039-0.322 0-0.601-0.183-0.739-0.45l-0.002-0.005c-0.096-0.24-0.176-0.48-0.256-0.72s0 0-0.096 0l-0.704-0.16s0 0-0.096 0l-0.448 0.528c-0.146 0.151-0.35 0.245-0.576 0.245-0.174 0-0.335-0.056-0.467-0.15l0.002 0.002c-0.32-0.192-0.624-0.4-0.928-0.624-0.208-0.153-0.342-0.397-0.342-0.673 0-0.146 0.038-0.284 0.104-0.404l-0.002 0.004c0.096-0.208 0.208-0.432 0.304-0.656 0.007-0.014 0.011-0.031 0.011-0.048s-0.004-0.034-0.011-0.049l0 0.001c-0.112-0.192-0.256-0.384-0.384-0.592h-0.912c-0.018 0.001-0.039 0.002-0.061 0.002-0.392 0-0.718-0.282-0.787-0.653l-0.001-0.005c-0.080-0.352-0.144-0.704-0.208-1.072-0.013-0.054-0.020-0.117-0.020-0.181 0-0.185 0.062-0.356 0.166-0.493l-0.001 0.002zM23.76 1.456s0 0 0 0l-0.688 0.72c-0.077 0.089-0.19 0.146-0.316 0.146-0.059 0-0.116-0.012-0.167-0.035l0.003 0.001c-0.319-0.115-0.69-0.195-1.074-0.223l-0.014-0.001c-0.183-0.008-0.335-0.132-0.383-0.301l-0.001-0.003c-0.176-0.16-0.32-0.56-0.416-0.88 0 0 0 0 0 0l-1.024 0.144s0 0 0 0c0 0.352 0 0.688 0 1.040 0.001 0.010 0.002 0.022 0.002 0.034 0 0.155-0.091 0.288-0.223 0.349l-0.002 0.001c-0.366 0.181-0.682 0.395-0.965 0.644l0.005-0.004c-0.065 0.044-0.145 0.071-0.232 0.071s-0.167-0.026-0.233-0.072l0.001 0.001-0.976-0.448-0.592 0.864s0 0 0 0l0.72 0.704c0.097 0.080 0.159 0.2 0.159 0.335 0 0.058-0.011 0.113-0.032 0.164l0.001-0.003c-0.115 0.319-0.195 0.69-0.223 1.074l-0.001 0.014c-0.005 0.179-0.123 0.33-0.285 0.383l-0.003 0.001-0.624 0.224-0.368 0.144 0.192 1.072h1.072c0.009-0.001 0.018-0.001 0.029-0.001 0.169 0 0.315 0.097 0.386 0.238l0.001 0.003c0.17 0.354 0.373 0.66 0.612 0.933l-0.004-0.005c0.044 0.065 0.071 0.145 0.071 0.232s-0.026 0.167-0.072 0.233l0.001-0.001-0.432 0.928s0 0 0 0.096l0.784 0.528 0.736-0.768c0.074-0.098 0.19-0.16 0.32-0.16 0.040 0 0.078 0.006 0.115 0.017l-0.003-0.001c0.343 0.132 0.74 0.223 1.154 0.255l0.014 0.001c0.164 0.012 0.3 0.121 0.351 0.269l0.001 0.003 0.224 0.608 0.144 0.4 1.072-0.192v0.128c0-0.32 0-0.656 0-0.976-0.001-0.009-0.001-0.020-0.001-0.031 0-0.172 0.105-0.32 0.254-0.383l0.003-0.001c0.368-0.169 0.684-0.378 0.964-0.627l-0.004 0.003c0.061-0.042 0.135-0.066 0.216-0.066s0.155 0.025 0.217 0.067l-0.001-0.001 0.496 0.24 0.512 0.224 0.608-0.896-0.768-0.736c-0.092-0.080-0.15-0.197-0.15-0.327 0-0.049 0.008-0.096 0.023-0.14l-0.001 0.003c0.119-0.328 0.205-0.708 0.239-1.103l0.001-0.017c-0-0.005-0-0.010-0-0.016 0-0.23 0.186-0.416 0.416-0.416 0 0 0 0 0 0h-0l1.008-0.368-0.208-1.088h-1.008c-0.006 0-0.012 0-0.019 0-0.154 0-0.287-0.091-0.348-0.222l-0.001-0.002c-0.191-0.391-0.415-0.727-0.677-1.030l0.005 0.006c-0.045-0.057-0.072-0.129-0.072-0.208s0.027-0.151 0.073-0.209l-0.001 0.001c0.153-0.378 0.298-0.684 0.458-0.98l-0.026 0.052s0-0.080 0-0.112l-0.528-0.352z"></path>
<path fill="#42a5f6" style="fill: var(--color1, #42a5f6)" d="M19.68 8.528c-0.741-0.494-1.222-1.326-1.222-2.27 0-1.502 1.218-2.72 2.72-2.72s2.72 1.218 2.72 2.72c0 0.553-0.165 1.067-0.448 1.497l0.006-0.010c-0.493 0.747-1.329 1.234-2.278 1.234-0.558 0-1.076-0.168-1.508-0.456l0.010 0.006zM22.752 7.312c0.206-0.3 0.33-0.671 0.33-1.071 0-1.052-0.852-1.904-1.904-1.904s-1.904 0.852-1.904 1.904c0 0.647 0.323 1.219 0.816 1.563l0.006 0.004c0.302 0.211 0.677 0.337 1.082 0.337 0.652 0 1.227-0.327 1.57-0.827l0.004-0.006z"></path>
</symbol>
<symbol id="icon-Support" viewBox="0 0 40 32">
<title>Support</title>
<path fill="#465a65" style="fill: var(--color4, #465a65)" d="M37.319 5.319h-34.659c-1.469 0-2.659-1.191-2.659-2.659s1.191-2.659 2.659-2.659v0h34.688c0 0 0 0 0 0 1.475 0 2.672 1.187 2.688 2.658v0.002c-0.016 1.472-1.214 2.66-2.688 2.66-0.010 0-0.020-0-0.031-0h0.002z"></path>
<path fill="#465a65" style="fill: var(--color4, #465a65)" d="M37.319 18.674h-34.659c-1.36-0.146-2.41-1.287-2.41-2.674s1.050-2.528 2.398-2.673l0.012-0.001h34.688c0.084-0.009 0.18-0.014 0.278-0.014 1.485 0 2.688 1.204 2.688 2.688s-1.204 2.688-2.688 2.688c-0.098 0-0.195-0.005-0.29-0.015l0.012 0.001z"></path>
<path fill="#465a65" style="fill: var(--color4, #465a65)" d="M37.319 32h-34.659c-1.36-0.146-2.41-1.287-2.41-2.674s1.050-2.528 2.398-2.673l0.012-0.001h34.688c0.084-0.009 0.18-0.014 0.278-0.014 1.485 0 2.688 1.204 2.688 2.688s-1.204 2.688-2.688 2.688c-0.098 0-0.195-0.005-0.29-0.015l0.012 0.001z"></path>
</symbol>
<symbol id="icon-Upload" viewBox="0 0 48 32">
<title>Upload</title>
<path fill="#fff" style="fill: var(--color2, #fff)" d="M40.689 12.308c-0.625-0.124-1.12-0.578-1.301-1.169l-0.003-0.012c-1.797-5.992-6.998-10.39-13.306-10.974l-0.061-0.005c-0.725-0.121-1.56-0.19-2.412-0.19-5.564 0-10.44 2.944-13.156 7.36l-0.038 0.067c-0.298 0.407-0.71 0.716-1.189 0.881l-0.017 0.005c-4.17 1.049-7.429 4.161-8.666 8.161l-0.023 0.086c-0.222 0.714-0.345 1.428-0.517 2.142v2.462c0.069 0.19 0.137 0.429 0.19 0.674l0.007 0.040c0.492 2.997 2.038 5.567 4.237 7.368l0.021 0.017c4.012 3.495 8.763 2.782 13.465 2.782h12.012c3.003 0 5.957 0 8.911 0 4.801-0.419 8.593-4.227 8.982-8.999l0.002-0.035c0.069-0.429 0.108-0.924 0.108-1.428 0-4.447-3.055-8.181-7.181-9.216l-0.066-0.014zM39.065 27.717c-1.776 0.155-3.842 0.243-5.929 0.243-0.616 0-1.229-0.008-1.841-0.023l0.091 0.002h-19.249c-0.022 0-0.047 0-0.073 0-4.030 0-7.372-2.943-7.994-6.797l-0.006-0.047c-0.059-0.358-0.093-0.771-0.093-1.191 0-3.801 2.752-6.959 6.373-7.59l0.046-0.007c1.377-0.223 2.515-1.085 3.115-2.265l0.011-0.024c2.054-3.64 5.896-6.057 10.303-6.057 0.073 0 0.146 0.001 0.219 0.002l-0.011-0c0.037-0 0.082-0.001 0.126-0.001 5.773 0 10.582 4.132 11.628 9.6l0.012 0.074c0.517 2.191 0.517 2.191 2.782 2.462 2.973 0.32 5.27 2.805 5.292 5.832v0.002c0.005 0.092 0.008 0.199 0.008 0.307 0 2.821-2.072 5.158-4.777 5.572l-0.031 0.004z"></path>
<path fill="#fff" style="fill: var(--color2, #fff)" d="M21.243 17.575h-3.446c-0.008 0-0.016 0-0.025 0-0.639 0-1.157-0.518-1.157-1.157 0-0.271 0.093-0.52 0.249-0.717l-0.002 0.002 6.228-8.32c0.218-0.281 0.556-0.46 0.935-0.46s0.717 0.179 0.933 0.457l0.002 0.003 6.203 8.246c0.139 0.191 0.222 0.431 0.222 0.689 0 0.644-0.515 1.168-1.156 1.181l-0.001 0h-3.397c-0.34 0-0.615 0.276-0.615 0.615v0 6.695c-0.014 0.465-0.394 0.837-0.861 0.837-0 0-0 0-0 0h-2.609c-0.007 0-0.016 0-0.025 0-0.462 0-0.837-0.375-0.837-0.837 0-0 0-0 0-0v0-6.622c0-0 0-0 0-0 0-0.34-0.276-0.615-0.615-0.615-0.009 0-0.017 0-0.026 0.001l0.001-0z"></path>
</symbol>
<symbol id="icon-WebsiteLayout" viewBox="0 0 32 32">
<title>WebsiteLayout</title>
<path fill="#42a5f6" style="fill: var(--color1, #42a5f6)" d="M0 0h32v32h-32zM1.792 1.776v28.432h28.416v-28.432z"></path>
<path fill="#42a5f6" style="fill: var(--color1, #42a5f6)" d="M28.432 3.584v5.248h-24.864v-5.248z"></path>
<path fill="#42a5f6" style="fill: var(--color1, #42a5f6)" d="M8 23.664c0 1.237-1.003 2.24-2.24 2.24s-2.24-1.003-2.24-2.24v0c0-0 0-0 0-0 0-1.237 1.003-2.24 2.24-2.24 0.011 0 0.022 0 0.034 0l-0.002-0c1.221 0.009 2.208 1.001 2.208 2.224 0 0.006-0 0.011-0 0.017v-0.001z"></path>
<path fill="#42a5f6" style="fill: var(--color1, #42a5f6)" d="M21.36 23.632c0 0.005 0 0.011 0 0.017 0 1.211-0.981 2.192-2.192 2.192-0.028 0-0.056-0.001-0.084-0.002l0.004 0c-1.223-0.018-2.208-1.014-2.208-2.24 0-1.237 1.003-2.24 2.24-2.24s2.24 1.003 2.24 2.24c0 0.011-0 0.022-0 0.033l0-0.002z"></path>
<path fill="#42a5f6" style="fill: var(--color1, #42a5f6)" d="M21.36 13.76c0 0.010 0 0.021 0 0.033 0 1.203-0.962 2.181-2.158 2.207l-0.003 0c-0.005 0-0.010 0-0.016 0-1.237 0-2.24-1.003-2.24-2.24 0-0 0-0 0-0v0c0.025-1.21 0.986-2.188 2.187-2.24l0.005-0c0 0 0 0 0 0 1.228 0 2.224 0.996 2.224 2.224 0 0.006-0 0.011-0 0.017v-0.001z"></path>
<path fill="#42a5f6" style="fill: var(--color1, #42a5f6)" d="M5.744 16c-0.005 0-0.011 0-0.016 0-1.228 0-2.224-0.996-2.224-2.224 0-0.011 0-0.023 0-0.034l-0 0.002c0-1.237 1.003-2.24 2.24-2.24s2.24 1.003 2.24 2.24v0c0 0.010 0 0.021 0 0.032 0 1.228-0.996 2.224-2.224 2.224-0.006 0-0.011-0-0.017-0h0.001z"></path>
<path fill="#42a5f6" style="fill: var(--color1, #42a5f6)" d="M8.896 13.28v-1.68h6.128v1.68z"></path>
<path fill="#42a5f6" style="fill: var(--color1, #42a5f6)" d="M22.272 13.28v-1.68h6.128v1.68z"></path>
<path fill="#42a5f6" style="fill: var(--color1, #42a5f6)" d="M8.896 23.088v-1.6h6.128v1.6z"></path>
<path fill="#42a5f6" style="fill: var(--color1, #42a5f6)" d="M22.256 23.104v-1.6h6.16v1.6z"></path>
<path fill="#42a5f6" style="fill: var(--color1, #42a5f6)" d="M15.056 14.288v0.8h-6.144v-0.8z"></path>
<path fill="#42a5f6" style="fill: var(--color1, #42a5f6)" d="M28.448 14.272v0.8h-6.16v-0.8z"></path>
<path fill="#42a5f6" style="fill: var(--color1, #42a5f6)" d="M15.056 16.080v0.784h-6.128l-0.096-0.784z"></path>
<path fill="#42a5f6" style="fill: var(--color1, #42a5f6)" d="M22.288 16.864v-0.864h6.144v0.816z"></path>
<path fill="#42a5f6" style="fill: var(--color1, #42a5f6)" d="M15.072 17.84v0.8h-6.16v-0.8z"></path>
<path fill="#42a5f6" style="fill: var(--color1, #42a5f6)" d="M28.448 17.856v0.784h-6.144v-0.784z"></path>
<path fill="#42a5f6" style="fill: var(--color1, #42a5f6)" d="M8.832 24.080h6.224v0.816h-6.128z"></path>
<path fill="#42a5f6" style="fill: var(--color1, #42a5f6)" d="M28.448 24.080v0.8h-6.16v-0.8z"></path>
<path fill="#42a5f6" style="fill: var(--color1, #42a5f6)" d="M8.896 26.656v-0.784h6.144v0.784z"></path>
<path fill="#42a5f6" style="fill: var(--color1, #42a5f6)" d="M22.272 26.672v-0.784h6.16v0.784z"></path>
<path fill="#42a5f6" style="fill: var(--color1, #42a5f6)" d="M15.12 28.464h-6.208v-0.816h6.128z"></path>
<path fill="#42a5f6" style="fill: var(--color1, #42a5f6)" d="M22.288 28.448v-0.8h6.144v0.8z"></path>
</symbol>
</defs>
</svg>